<?xml version="1.0" encoding="UTF-8" standalone="no"?>
<!-- Created with Inkscape (http://www.inkscape.org/) -->

<svg
   xmlns:dc="http://purl.org/dc/elements/1.1/"
   xmlns:cc="http://creativecommons.org/ns#"
   xmlns:rdf="http://www.w3.org/1999/02/22-rdf-syntax-ns#"
   xmlns:svg="http://www.w3.org/2000/svg"
   xmlns="http://www.w3.org/2000/svg"
   xmlns:sodipodi="http://sodipodi.sourceforge.net/DTD/sodipodi-0.dtd"
   xmlns:inkscape="http://www.inkscape.org/namespaces/inkscape"
   width="6.7797804mm"
   height="6.77917mm"
   viewBox="0 0 6.7797804 6.77917"
   version="1.1"
   id="svg8"
   inkscape:version="0.92.3 (2405546, 2018-03-11)"
   sodipodi:docname="favicon.svg"
   inkscape:export-filename="/home/matheus/Ãrea de Trabalho/matheuspsantos.github.io/assets/img/favicon.png"
   inkscape:export-xdpi="187.3217"
   inkscape:export-ydpi="187.3217">
  <defs
     id="defs2" />
  <sodipodi:namedview
     id="base"
     pagecolor="#ffffff"
     bordercolor="#666666"
     borderopacity="1.0"
     inkscape:pageopacity="0.0"
     inkscape:pageshadow="2"
     inkscape:zoom="21.973253"
     inkscape:cx="12.812184"
     inkscape:cy="12.811012"
     inkscape:document-units="mm"
     inkscape:current-layer="g905"
     showgrid="false"
     showguides="true"
     inkscape:guide-bbox="true"
     inkscape:window-width="1366"
     inkscape:window-height="742"
     inkscape:window-x="1366"
     inkscape:window-y="0"
     inkscape:window-maximized="1"
     fit-margin-top="0"
     fit-margin-left="0"
     fit-margin-right="0"
     fit-margin-bottom="0">
    <sodipodi:guide
       position="-170.02547,165.39037"
       orientation="-0.70710678,0.70710678"
       id="guide825"
       inkscape:locked="false" />
    <sodipodi:guide
       position="-132.22785,108.69394"
       orientation="0.70710678,0.70710678"
       id="guide827"
       inkscape:locked="false" />
    <sodipodi:guide
       position="137.64713,149.51537"
       orientation="0,1"
       id="guide831"
       inkscape:locked="false" />
    <sodipodi:guide
       position="149.74237,303.72966"
       orientation="1,0"
       id="guide833"
       inkscape:locked="false" />
    <sodipodi:guide
       position="-197.23976,263.66418"
       orientation="0,1"
       id="guide837"
       inkscape:locked="false" />
    <sodipodi:guide
       position="-199.12963,175.59573"
       orientation="1,0"
       id="guide839"
       inkscape:locked="false" />
  </sodipodi:namedview>
  <metadata
     id="metadata5">
    <rdf:RDF>
      <cc:Work
         rdf:about="">
        <dc:format>image/svg+xml</dc:format>
        <dc:type
           rdf:resource="http://purl.org/dc/dcmitype/StillImage" />
        <dc:title />
      </cc:Work>
    </rdf:RDF>
  </metadata>
  <g
     inkscape:label="Camada 1"
     inkscape:groupmode="layer"
     id="layer1"
     transform="translate(41.641183,-281.74215)">
    <g
       id="g863"
       transform="matrix(1.0000893,0,0,0.99999932,0.00360917,9.3796998e-5)" />
    <g
       transform="matrix(0.02209875,0,0,0.02209676,-40.640194,282.06517)"
       id="g881"
       style="stroke-width:11.97331238;stroke-miterlimit:4;stroke-dasharray:none;paint-order:stroke fill markers">
      <g
         id="g905">
        <circle
           r="147.41072"
           cy="138.77916"
           cx="108.1012"
           id="circle865"
           style="fill:none;fill-opacity:1;stroke:#800080;stroke-width:11.97331238;stroke-linecap:round;stroke-linejoin:bevel;stroke-miterlimit:4;stroke-dasharray:none;paint-order:stroke fill markers" />
        <path
           inkscape:connector-curvature="0"
           id="path867"
           d="M 42.733262,140.06429 V 10.14539 L 108.95403,75.729457 173.28282,12.019223 V 138.81507"
           style="fill:none;stroke:#800080;stroke-width:11.97331238;stroke-linecap:round;stroke-linejoin:bevel;stroke-miterlimit:4;stroke-dasharray:none;stroke-opacity:1;paint-order:stroke fill markers" />
        <g
           style="stroke-width:11.97331238;stroke-miterlimit:4;stroke-dasharray:none;paint-order:stroke fill markers;stroke:#800080"
           id="g873">
          <path
             style="fill:none;fill-opacity:1;stroke:#800080;stroke-width:11.97331238;stroke-linecap:round;stroke-linejoin:bevel;stroke-miterlimit:4;stroke-dasharray:none;paint-order:stroke fill markers"
             id="path869"
             sodipodi:type="arc"
             sodipodi:cx="108.95403"
             sodipodi:cy="-139.00595"
             sodipodi:rx="63.276489"
             sodipodi:ry="63.276489"
             sodipodi:start="0"
             sodipodi:end="1.5707963"
             d="m 172.23052,-139.00595 a 63.276489,63.276489 0 0 1 -63.27649,63.276488 l 0,-63.276488 z"
             transform="scale(1,-1)" />
          <path
             style="fill:none;stroke:#800080;stroke-width:11.97331238;stroke-linecap:round;stroke-linejoin:bevel;stroke-miterlimit:4;stroke-dasharray:none;stroke-opacity:1;paint-order:stroke fill markers"
             d="M 108.10119,139.00595 V 284.14882"
             id="path871"
             inkscape:connector-curvature="0" />
        </g>
        <g
           style="stroke-width:11.97331238;stroke-linecap:round;stroke-linejoin:bevel;stroke-miterlimit:4;stroke-dasharray:none;paint-order:stroke fill markers;stroke:#800080"
           id="g879">
          <path
             transform="rotate(150)"
             d="m 67.459103,-206.49199 a 63.276489,63.276489 0 0 1 -86.437291,23.1608 l 31.638244,-54.79904 z"
             sodipodi:end="2.0943951"
             sodipodi:start="0.52359878"
             sodipodi:ry="63.276489"
             sodipodi:rx="63.276489"
             sodipodi:cy="-238.13023"
             sodipodi:cx="12.660056"
             sodipodi:type="arc"
             id="path875"
             style="fill:none;fill-opacity:1;stroke:#800080;stroke-width:11.97331238;stroke-linecap:round;stroke-linejoin:bevel;stroke-miterlimit:4;stroke-dasharray:none;paint-order:stroke fill markers" />
          <path
             style="fill:none;fill-opacity:1;stroke:#800080;stroke-width:11.97331238;stroke-linecap:round;stroke-linejoin:bevel;stroke-miterlimit:4;stroke-dasharray:none;paint-order:stroke fill markers"
             id="path877"
             sodipodi:type="arc"
             sodipodi:cx="-12.660056"
             sodipodi:cy="238.13023"
             sodipodi:rx="63.276489"
             sodipodi:ry="63.276489"
             sodipodi:start="0.52359878"
             sodipodi:end="2.0943951"
             d="m 42.138991,269.76848 a 63.276489,63.276489 0 0 1 -86.437292,23.1608 l 31.638245,-54.79905 z"
             transform="rotate(-30.000002)" />
        </g>
        <path
           style="fill:#ffffff;fill-opacity:1;stroke:#800080;stroke-width:0.04550987;stroke-linecap:round;stroke-linejoin:bevel;stroke-miterlimit:4;stroke-dasharray:none;paint-order:stroke fill markers"
           d="M 11.706294,24.550015 C 10.125228,24.361843 9.0102656,24.050737 7.7469347,23.445243 6.5313964,22.862655 5.5780095,22.197502 4.6126449,21.25853 2.7181117,19.415793 1.5745851,17.19595 1.1434306,14.524002 1.0461297,13.92101 1.0091962,12.347367 1.076532,11.673623 1.3891257,8.5458911 2.9779794,5.5947686 5.3922483,3.6576504 5.8401114,3.298302 6.6064749,2.7595417 6.7458435,2.7060608 c 0.058214,-0.022339 0.06816,0.631572 0.078761,5.178515 0.01139,4.8854112 0.017049,5.2113172 0.092413,5.3222202 0.099639,0.146625 0.2617346,0.223186 0.4725304,0.223186 0.123208,0 0.1985241,-0.03683 0.3164279,-0.154733 L 7.8607094,13.120515 V 8.2197346 3.3189542 l 2.2538606,2.2209866 2.253862,2.2209869 -0.01953,2.4590703 c -0.01074,1.35249 -0.03343,2.573546 -0.05042,2.713459 l -0.03089,0.254388 -0.366689,0.05613 C 10.74412,13.421058 9.6692029,13.9554 8.8168753,14.777046 8.3479211,15.229119 8.1304676,15.499489 7.8189361,16.01783 7.3841056,16.74132 7.1337372,17.517066 7.0370564,18.44042 l -0.05282,0.504457 0.2661513,0.268957 0.2661508,0.268958 H 9.8958544 12.27517 v 2.548553 2.548553 l -0.216172,-0.0068 c -0.118894,-0.0038 -0.27761,-0.01413 -0.352701,-0.02307 z"
           id="path897"
           inkscape:connector-curvature="0"
           transform="matrix(11.972774,0,0,11.973852,-45.296182,-14.618433)" />
        <path
           style="fill:#ffffff;fill-opacity:1;stroke:#800080;stroke-width:0.04550987;stroke-linecap:round;stroke-linejoin:bevel;stroke-miterlimit:4;stroke-dasharray:none;paint-order:stroke fill markers"
           d="m 8.1090393,18.228577 c 0.2973226,-1.982689 1.9759477,-3.661314 3.9586367,-3.958636 l 0.207491,-0.03112 v 2.098622 2.098622 H 10.176546 8.077924 Z"
           id="path899"
           inkscape:connector-curvature="0"
           transform="matrix(11.972774,0,0,11.973852,-45.296182,-14.618433)" />
        <path
           style="fill:#ffffff;fill-opacity:1;stroke:#800080;stroke-width:0.04550987;stroke-linecap:round;stroke-linejoin:bevel;stroke-miterlimit:4;stroke-dasharray:none;paint-order:stroke fill markers"
           d="m 13.412914,10.198781 c 0,-1.7881086 0.0095,-2.0934541 0.06529,-2.0934541 0.156225,0 0.724364,0.1433203 1.074077,0.2709496 1.154373,0.421294 2.135188,1.3355878 2.666588,2.4857325 0.159867,0.346011 0.380954,1.113402 0.380954,1.322287 v 0.107939 h -2.093455 -2.093454 z"
           id="path901"
           inkscape:connector-curvature="0"
           transform="matrix(11.972774,0,0,11.973852,-45.296182,-14.618433)" />
        <path
           style="fill:#ffffff;fill-opacity:1;stroke:#800080;stroke-width:0.04550987;stroke-linecap:round;stroke-linejoin:bevel;stroke-miterlimit:4;stroke-dasharray:none;paint-order:stroke fill markers"
           d="M 10.444309,4.3973973 8.0445774,2.0130387 8.5328943,1.8240294 C 9.9361912,1.2808652 11.252654,1.0378322 12.798531,1.0365475 c 1.215575,-0.00101 2.2719,0.1481731 3.390486,0.4788339 0.46871,0.1385538 1.353819,0.470894 1.423277,0.5344117 0.03592,0.032844 -4.667122,4.7373043 -4.732425,4.7338551 -0.01971,-0.00104 -1.115708,-1.0748536 -2.43556,-2.3862509 z"
           id="path903"
           inkscape:connector-curvature="0"
           transform="matrix(11.972774,0,0,11.973852,-45.296182,-14.618433)" />
        <path
           style="fill:#ffffff;fill-opacity:1;stroke:#800080;stroke-width:0.04550987;stroke-linecap:round;stroke-linejoin:bevel;stroke-miterlimit:4;stroke-dasharray:none;paint-order:stroke fill markers"
           d="M 17.535156,9.3532991 C 16.855764,8.415686 15.636484,7.5772792 14.479332,7.2520386 l -0.44409,-0.1248203 1.839178,-1.808652 1.839177,-1.808652 0.01198,1.5240384 c 0.0066,0.8382211 0.0066,2.2083916 0,3.0448233 l -0.01198,1.5207848 z"
           id="path905"
           inkscape:connector-curvature="0"
           transform="matrix(11.972774,0,0,11.973852,-45.296182,-14.618433)" />
        <path
           style="fill:#ffffff;fill-opacity:1;stroke:#800080;stroke-width:0.04550987;stroke-linecap:round;stroke-linejoin:bevel;stroke-miterlimit:4;stroke-dasharray:none;paint-order:stroke fill markers"
           d="m 15.369839,24.181945 c 1.709159,-0.868904 2.836668,-2.377013 3.160273,-4.22705 0.03885,-0.222109 0.0707,-0.537592 0.07078,-0.701073 l 1.45e-4,-0.297239 -0.263002,-0.260257 -0.263001,-0.260257 h -2.376571 -2.376572 v -2.548553 -2.548553 h 2.528059 c 2.727639,0 2.714734,0.0011 2.852135,-0.239398 0.04599,-0.0805 0.06302,-1.189939 0.08099,-5.2769605 l 0.02275,-5.1750335 0.568874,0.3806864 c 2.637844,1.7652287 4.451153,4.5226359 5.027236,7.6446616 0.473375,2.565409 0.104675,5.118178 -1.076989,7.456777 -1.530698,3.029358 -4.309776,5.262845 -7.591037,6.100757 -0.799463,0.204153 -0.848277,0.197649 -0.364079,-0.04851 z"
           id="path907"
           inkscape:connector-curvature="0"
           transform="matrix(11.972774,0,0,11.973852,-45.296182,-14.618433)" />
        <path
           style="fill:#ffffff;fill-opacity:1;stroke:#800080;stroke-width:0.04550987;stroke-linecap:round;stroke-linejoin:bevel;stroke-miterlimit:4;stroke-dasharray:none;paint-order:stroke fill markers"
           d="m 13.321894,21.601067 v -2.118271 h 2.118272 2.118271 l -0.02843,0.170662 c -0.116376,0.698686 -0.411953,1.447583 -0.79702,2.019392 -0.250686,0.372257 -0.848786,0.970357 -1.221043,1.221042 -0.570865,0.384432 -1.300677,0.672117 -2.019392,0.796024 l -0.170662,0.02942 z"
           id="path909"
           inkscape:connector-curvature="0"
           transform="matrix(11.972774,0,0,11.973852,-45.296182,-14.618433)" />
      </g>
    </g>
  </g>
</svg>
